<mxfile host="app.diagrams.net" agent="Mozilla/5.0 (X11; Ubuntu; Linux x86_64; rv:128.0) Gecko/20100101 Firefox/128.0" version="24.8.4">
  <diagram id="prtHgNgQTEPvFCAcTncT" name="Page-1">
    <mxGraphModel dx="831" dy="479" grid="1" gridSize="10" guides="1" tooltips="1" connect="1" arrows="1" fold="1" page="1" pageScale="1" pageWidth="827" pageHeight="1169" math="0" shadow="0">
      <root>
        <mxCell id="0" />
        <mxCell id="1" parent="0" />
        <mxCell id="w-HX_fHMtzxKANylX04L-1" value="qu&#39;est-ce qui doit figurer dans le formulaire d&#39;attestation auprès du comité d&#39;éthique de la recherche ?" style="rounded=1;whiteSpace=wrap;html=1;strokeWidth=2;strokeColor=#6d6cbd;fontColor=#6d6cbd;fontStyle=1" vertex="1" parent="1">
          <mxGeometry x="254" y="112" width="320" height="60" as="geometry" />
        </mxCell>
        <mxCell id="w-HX_fHMtzxKANylX04L-3" value="" style="endArrow=classic;startArrow=classic;html=1;rounded=0;" edge="1" parent="1" target="w-HX_fHMtzxKANylX04L-4">
          <mxGeometry width="50" height="50" relative="1" as="geometry">
            <mxPoint x="290" y="222" as="sourcePoint" />
            <mxPoint x="340" y="172" as="targetPoint" />
            <Array as="points">
              <mxPoint x="260" y="240" />
            </Array>
          </mxGeometry>
        </mxCell>
        <mxCell id="w-HX_fHMtzxKANylX04L-4" value="&lt;div&gt;descriptif de la méthodologie du projet (objectifs, procédures)&lt;/div&gt;" style="rounded=1;whiteSpace=wrap;html=1;gradientColor=none;fillColor=#6d6cbd;fontColor=#ffffff;fontStyle=1;strokeColor=#6d6cbd;" vertex="1" parent="1">
          <mxGeometry x="120" y="240" width="120" height="60" as="geometry" />
        </mxCell>
        <mxCell id="w-HX_fHMtzxKANylX04L-5" value="traitement des données personnelles" style="rounded=1;whiteSpace=wrap;html=1;strokeColor=#4d47c4;strokeWidth=1;fillColor=#4d47c4;fontStyle=1;fontColor=#ffffff;" vertex="1" parent="1">
          <mxGeometry x="280" y="240" width="120" height="60" as="geometry" />
        </mxCell>
        <mxCell id="w-HX_fHMtzxKANylX04L-6" value="notes d&#39;information (nature du projet, risques encourus)" style="rounded=1;whiteSpace=wrap;html=1;fillColor=#3d289e;strokeColor=#3d289e;fontStyle=1;fontColor=#ffffff;" vertex="1" parent="1">
          <mxGeometry x="440" y="240" width="120" height="60" as="geometry" />
        </mxCell>
        <mxCell id="w-HX_fHMtzxKANylX04L-7" value="formulaire de consentement libre et éclairé (à archiver)" style="rounded=1;whiteSpace=wrap;html=1;fontColor=#ffffff;fillColor=#261573;strokeColor=#261573;fontStyle=1" vertex="1" parent="1">
          <mxGeometry x="600" y="240" width="120" height="60" as="geometry" />
        </mxCell>
        <mxCell id="w-HX_fHMtzxKANylX04L-8" value="déclaration au registre du traitement des données personnelles auprès de la DPO" style="ellipse;whiteSpace=wrap;html=1;fontColor=#4d47c4;strokeColor=#4d47c4;strokeWidth=2;" vertex="1" parent="1">
          <mxGeometry x="280" y="360" width="120" height="100" as="geometry" />
        </mxCell>
      </root>
    </mxGraphModel>
  </diagram>
</mxfile>
